<svg xmlns="http://www.w3.org/2000/svg" version="1.1" xmlns:xlink="http://www.w3.org/1999/xlink" xmlns:svgjs="http://svgjs.dev/svgjs" width="100%" height="100%" viewBox="0 0 1000 600"><rect width="1000" height="600" x="0" y="0" fill="#1d1e20"/><g><circle r="166.66666666666666" cx="444.0434366861979" cy="466.2657963350614" fill="#ebe2b0" transform="matrix(0.450650307317251,0,0,0.450650307317251,0,89.8771580226286)"/><path d="M420.5156557893615 541.2658046775515L420.5156557893615 541.2658046775515Q405.0849045339504 541.2658046775515 393.716312177932 536.3039730017833Q382.3749826333189 531.3148785146097 375.9409591416634 522.3454135622594Q369.5069356500079 513.3759486099092 368.66178849644297 501.40757440297375L368.66178849644297 501.40757440297375L387.3368143090871 501.40757440297375Q388.10017302843613 509.4501037675431 392.8166394015564 514.6845635573645Q397.5058429632715 519.8917605357806 404.8395392313025 522.4544648078806Q412.1732354993336 524.9899062685754 420.5156557893615 524.9899062685754L420.5156557893615 524.9899062685754Q430.1939538382501 524.9899062685754 437.90932946595564 521.8274201455583Q445.6247050936612 518.6649340225413 450.12306897553896 512.9124808160188Q454.6214328574167 507.16002760949624 454.6214328574167 499.5809660388173L454.6214328574167 499.5809660388173Q454.6214328574167 492.68347475327135 450.7501136378613 488.3759505512308Q446.87879441830586 484.06842634919025 440.4447709266504 481.2876195858476Q434.01074743499487 478.50681282250497 426.34989743009993 476.38031353289006L426.34989743009993 476.38031353289006L409.0925378105324 471.50027029133776Q391.86244100237025 466.6202270497855 382.2659313876976 457.51444804040864Q372.669421773025 448.40866903103176 372.669421773025 434.20474428886007L372.669421773025 434.20474428886007Q372.669421773025 422.12731883630335 379.2124965103018 413.07606544973714Q385.7283084361732 404.02481206317094 396.82427267813847 399.03571757599735Q407.947499731509 394.04662308882376 421.7424823026009 394.04662308882376L421.7424823026009 394.04662308882376Q435.83735579915134 394.04662308882376 446.68795473846865 399.03571757599735Q457.51129086638065 404.02481206317094 463.78173748960427 412.6125976558467Q470.05218411282783 421.1731204371171 470.4338634725023 432.0237193764345L470.4338634725023 432.0237193764345L452.6312476248284 432.0237193764345Q451.3771583001837 421.55479979679166 442.6530586504813 415.8568722130797Q433.9289590007789 410.1589446293679 421.1699632630892 410.1589446293679L421.1699632630892 410.1589446293679Q411.9823958194964 410.1589446293679 405.0303789111398 413.18511669535843Q398.0783620027832 416.21128876134895 394.2343055946331 421.418485739765Q390.4175119978883 426.6529455295865 390.4175119978883 433.35959713529513L390.4175119978883 433.35959713529513Q390.4175119978883 440.8296074603528 395.0521899367927 445.3824969650413Q399.7141306871024 449.9353864697297 406.09362855594725 452.47082793042443Q412.4458636133868 455.0062693911192 417.6257977803976 456.4511983956011L417.6257977803976 456.4511983956011L431.9115109567852 460.3770432379672Q437.66396416330775 461.9037606766652 444.61598107166435 464.60277900579183Q451.56799798002095 467.2745345235132 457.8929702260551 471.74563559398564Q464.21794247208936 476.1894738530528 468.28010137148203 483.0597023271934Q472.36952308228 489.9026679899287 472.36952308228 499.88085696427584L472.36952308228 499.88085696427584Q472.36952308228 511.5766030571581 466.26265332748835 520.9550101805881Q460.183046384102 530.3606801154235 448.59635153684104 535.8132423964876Q436.9823938781747 541.2658046775515 420.5156557893615 541.2658046775515ZM515.8809700851707 538.7848888396675L498.6236104656031 538.7848888396675L498.6236104656031 431.64204001676L515.8809700851707 431.64204001676L515.8809700851707 538.7848888396675ZM507.3477101153055 414.0847894717339L507.3477101153055 414.0847894717339Q502.4676668737532 414.0847894717339 498.9235013910616 410.7314636688796Q495.3520730969647 407.37813786602527 495.3520730969647 402.68893430431024L495.3520730969647 402.68893430431024Q495.3520730969647 397.8906794969739 498.9235013910616 394.5918793169302Q502.4676668737532 391.2658163254812 507.3477101153055 391.2658163254812L507.3477101153055 391.2658163254812Q512.3368046024791 391.2658163254812 515.8809700851707 394.5918793169302Q519.4251355678623 397.8906794969739 519.4251355678623 402.68893430431024L519.4251355678623 402.68893430431024Q519.4251355678623 407.37813786602527 515.8809700851707 410.7314636688796Q512.3368046024791 414.0847894717339 507.3477101153055 414.0847894717339Z " fill="#1d1e20" transform="matrix(0.450650307317251,0,0,0.450650307317251,0,89.8771580226286)"/><path d="M726.5847374131448 509.6075242218189L726.5847374131448 509.6075242218189Q717.8840924692365 509.6075242218189 711.1001737629714 507.0877829880632Q704.3377913065673 504.54650550444643 699.9443963348908 499.5500955366575Q695.5510013632144 494.55368556886856 694.0434638729332 487.27443311579674L694.0434638729332 487.27443311579674L706.98675003949 484.1732131357898Q708.7957950278272 491.1509580908054 713.8352774953386 494.40293181984043Q718.8747599628499 497.6549055488755 726.4339836641167 497.6549055488755L726.4339836641167 497.6549055488755Q735.3069186069143 497.6549055488755 740.5617635730372 493.8645255733115Q745.81660853916 490.0741455977474 745.81660853916 484.8623731313469L745.81660853916 484.8623731313469Q745.81660853916 480.46897815967037 742.7584610588755 477.5615844284139Q739.7003135785909 474.6326544472962 733.4117286191323 473.18972570659855L733.4117286191323 473.18972570659855L719.3270212099342 469.87314322798005Q707.8266637840751 467.1380394956128 702.2057025703126 461.4309332824056Q696.6062776064111 455.70229081933724 696.6062776064111 446.76474712695614L696.6062776064111 446.76474712695614Q696.6062776064111 439.50703092374545 700.6981650800313 433.95067845956635Q704.7900525536517 428.37278974552606 711.8754787579732 425.2284972657968Q718.9393687124333 422.0842047860676 727.9630574042591 422.0842047860676L727.9630574042591 422.0842047860676Q736.6637023481675 422.0842047860676 742.7584610588755 424.711627269129Q748.8532197695836 427.3175135023293 752.6866722448699 431.9047347227562Q756.4985884702951 436.47041969332196 758.3937784580771 442.45749715472425L758.3937784580771 442.45749715472425L746.0535072876329 445.6448621341758Q744.309071048879 441.1007134134712 740.2602560749809 437.37494218749066Q736.2114411010831 433.6707072113713 728.0276661538425 433.6707072113713L728.0276661538425 433.6707072113713Q720.4684424525757 433.6707072113713 715.4289599850644 437.1595796888791Q710.389477517553 440.6484521663869 710.389477517553 445.94636963223206L710.389477517553 445.94636963223206Q710.389477517553 450.6412721019648 713.7922049956163 453.4840570836378Q717.1949324736794 456.3053058154497 724.6249386757794 458.0497420542036L724.6249386757794 458.0497420542036L737.417471093308 461.086353284627Q748.9393647690282 463.7999207671331 754.4526447334849 469.5285632302015Q759.9874609478029 475.23566944340865 759.9874609478029 483.9578506371782L759.9874609478029 483.9578506371782Q759.9874609478029 491.366320589417 755.7878922248768 497.1595718020688Q751.5883235019508 502.95282301472065 744.050636050545 506.29094174320034Q736.5129485991393 509.6075242218189 726.5847374131448 509.6075242218189ZM793.3040394830163 507.7984792334815L779.6715933209025 507.7984792334815L779.6715933209025 423.16101727912553L793.3040394830163 423.16101727912553L793.3040394830163 507.7984792334815ZM786.5631932764735 409.29167236853897L786.5631932764735 409.29167236853897Q782.6866683014648 409.29167236853897 779.8869558195141 406.6427136356164Q777.0872433375633 403.99375490269375 777.0872433375633 400.2895199265744L777.0872433375633 400.2895199265744Q777.0872433375633 396.49913995101036 779.8869558195141 393.89325371781007Q782.6866683014648 391.26583123474865 786.5631932764735 391.26583123474865L786.5631932764735 391.26583123474865Q790.5043270010656 391.26583123474865 793.3040394830163 393.89325371781007Q796.103751964967 396.49913995101036 796.103751964967 400.2895199265744L796.103751964967 400.2895199265744Q796.103751964967 403.99375490269375 793.3040394830163 406.6427136356164Q790.5043270010656 409.29167236853897 786.5631932764735 409.29167236853897ZM806.7641956462409 423.16101727912553L850.5258553641165 423.16101727912553L850.5258553641165 434.81212845401274L806.7641956462409 434.81212845401274L806.7641956462409 423.16101727912553ZM819.492119314186 486.908316868157L819.492119314186 403.0030874090805L833.1245654762998 403.0030874090805L833.1245654762998 485.83150437509903Q833.1245654762998 491.51707433844507 835.4289442114439 494.12296057164536Q837.7333229465879 496.7503830547068 843.1173854118778 496.7503830547068L843.1173854118778 496.7503830547068Q844.4095604035473 496.7503830547068 846.4124316406351 496.4488755566506Q848.4153028777229 496.14736805859434 850.0735941170321 495.84586056053814L850.0735941170321 495.84586056053814L852.8733065989828 507.34621798639716Q850.7627541125893 508.09998673153774 848.0707228799444 508.4876392290386Q845.3786916472994 508.8537554766783 842.7297329143769 508.8537554766783L842.7297329143769 508.8537554766783Q831.7677817350468 508.8537554766783 825.6299505246164 503.06050426402646Q819.492119314186 497.2672530513746 819.492119314186 486.908316868157L819.492119314186 486.908316868157ZM902.4066812796492 509.6075242218189L902.4066812796492 509.6075242218189Q890.884787603929 509.6075242218189 882.227215159743 504.1588530069456Q873.5481064656958 498.7101817920723 868.702450246935 488.8681156055225Q863.8567940281741 479.0260494189727 863.8567940281741 465.99661825297136L863.8567940281741 465.99661825297136Q863.8567940281741 452.7518245883584 868.702450246935 442.8666859020863Q873.5481064656958 433.00308346567533 882.227215159743 427.53287600094086Q890.884787603929 422.0842047860676 902.4066812796492 422.0842047860676L902.4066812796492 422.0842047860676Q913.9931837049529 422.0842047860676 922.6938286488613 427.53287600094086Q931.3944735927696 433.00308346567533 936.2401298115304 442.8666859020863Q941.0857860302913 452.7518245883584 941.0857860302913 465.99661825297136L941.0857860302913 465.99661825297136Q941.0857860302913 479.0260494189727 936.2401298115304 488.8681156055225Q931.3944735927696 498.7101817920723 922.6938286488613 504.1588530069456Q913.9931837049529 509.6075242218189 902.4066812796492 509.6075242218189ZM902.4066812796492 497.41800680040274L902.4066812796492 497.41800680040274Q910.9565724745295 497.41800680040274 916.4913886888473 493.0246118287262Q922.0046686533042 488.6527531069109 924.6536273862267 481.4811819031449Q927.3025861191493 474.33114694924 927.3025861191493 465.99661825297136L927.3025861191493 465.99661825297136Q927.3025861191493 457.5974808071192 924.6536273862267 450.3613008537697Q922.0046686533042 443.1466571502813 916.4913886888473 438.71018967888256Q910.9565724745295 434.27372220748373 902.4066812796492 434.27372220748373L902.4066812796492 434.27372220748373Q893.9213988343524 434.27372220748373 888.4727276194791 438.71018967888256Q883.0240564046059 443.1466571502813 880.3750976716832 450.3397646039086Q877.7261389387606 457.53287205753577 877.7261389387606 465.99661825297136L877.7261389387606 465.99661825297136Q877.7261389387606 474.33114694924 880.3750976716832 481.4811819031449Q883.0240564046059 488.6527531069109 888.4727276194791 493.0246118287262Q893.9213988343524 497.41800680040274 902.4066812796492 497.41800680040274ZM974.5531183145328 507.7984792334815L960.9206721524189 507.7984792334815L960.9206721524189 423.16101727912553L974.1008570674484 423.16101727912553L974.1008570674484 436.16891219526576L975.0053795616171 436.16891219526576Q977.3528307964835 429.72957348677915 983.3829807576082 425.83151226190927Q989.3915944688715 421.93345103703945 996.9723544199995 421.93345103703945L996.9723544199995 421.93345103703945Q998.4798919102808 421.93345103703945 1000.5689081468132 422.0195960364841Q1002.6363881334845 422.0842047860676 1003.8639543755705 422.1703497855122L1003.8639543755705 422.1703497855122L1003.8639543755705 435.8674046972095Q1003.2609393794581 435.71665094818144 1000.8273431451471 435.4151434501252Q998.4152831606972 435.11363595206893 995.68017942833 435.11363595206893L995.68017942833 435.11363595206893Q989.6284932173443 435.11363595206893 984.8043732484446 437.6549134356857Q980.0017895294061 440.1961909193025 977.2882220468999 444.61112214084017Q974.5531183145328 449.047589612239 974.5531183145328 454.79776832516853L974.5531183145328 454.79776832516853L974.5531183145328 507.7984792334815ZM1042.995320373297 509.758277970847L1042.995320373297 509.758277970847Q1034.983835424946 509.758277970847 1028.4152792172922 506.7432029902847Q1021.8682592594997 503.7065917598613 1018.0132705343522 497.87026804748706Q1014.1582818092046 492.0554805849741 1014.1582818092046 483.72095188870543L1014.1582818092046 483.72095188870543Q1014.1582818092046 476.4632356854948 1017.0226030407389 471.91908696479015Q1019.9084605221342 467.37493824408557 1024.7110442411727 464.74751576102415Q1029.5136279602111 462.14162952782385 1035.3499516725856 460.84945453615427Q1041.1862753849596 459.57881579434587 1047.0872078469174 458.80351079934417L1047.0872078469174 458.80351079934417Q1054.667967798045 457.83437955559197 1059.4274790173613 457.295973309063Q1064.208526486539 456.757567062534 1066.512905221683 455.4869283207256Q1068.817283956827 454.1947533290561 1068.817283956827 451.09353334904915L1068.817283956827 451.09353334904915L1068.817283956827 450.6412721019648Q1068.817283956827 445.3433546361196 1066.8574852194615 441.66065590986136Q1064.876150232235 437.9994934334643 1060.9350165076426 436.01815844623763Q1057.0154190329117 434.05835970887216 1051.0929503210928 434.05835970887216L1051.0929503210928 434.05835970887216Q1045.041264110107 434.05835970887216 1040.7340141378754 435.95354969665414Q1036.4052279157822 437.84873968443617 1033.7347329329987 440.66998841624803Q1031.0427017003535 443.5127733979211 1029.6643817092395 446.4632396288999L1029.6643817092395 446.4632396288999L1016.5703417936546 442.15598965666805Q1019.8223155226896 434.42447595651186 1025.3571317370074 430.07415348455766Q1030.8919479513256 425.7238310126035 1037.5466491584239 423.9147860242661Q1044.201350365522 422.0842047860676 1050.7268340734531 422.0842047860676L1050.7268340734531 422.0842047860676Q1054.9694752961013 422.0842047860676 1060.3750740112523 423.1179447794032Q1065.7806727264033 424.13014852287773 1070.8201551939146 427.16675975330116Q1075.859637661426 430.18183473386347 1079.1546838901836 436.12583969554345Q1082.4497301189408 442.06984465722337 1082.4497301189408 451.9980558432178L1082.4497301189408 451.9980558432178L1082.4497301189408 507.7984792334815L1069.0541827052998 507.7984792334815L1069.0541827052998 496.2981218076224L1068.12812396127 496.2981218076224Q1066.7067314704332 499.24858803860127 1063.5193664909816 502.3928805183305Q1060.33200151153 505.5371729980598 1055.2709827941576 507.64772548445336Q1050.188427826924 509.758277970847 1042.995320373297 509.758277970847ZM1045.3427716081633 497.719514298459L1045.3427716081633 497.719514298459Q1052.9235315592914 497.719514298459 1058.1353040256918 494.7690480674801Q1063.3686127419537 491.8185818365013 1066.0821802244595 487.0806068670463Q1068.817283956827 482.3641681474524 1068.817283956827 477.2170044306353L1068.817283956827 477.2170044306353L1068.817283956827 465.47974825630354Q1067.9773702122416 466.4488795000557 1065.1776577302912 467.2457207449186Q1062.3779452483404 468.0425619897815 1058.7813915215265 468.6455769858939Q1055.184837794713 469.27012823186755 1051.8251828163725 469.67931697922955Q1048.4439915881703 470.0885057265916 1046.484192850805 470.3254044750644L1046.484192850805 470.3254044750644Q1041.5523916325992 470.9284194711768 1037.2882141600899 472.39288446173566Q1033.002500437719 473.8788857021556 1030.439686704241 476.7216706838287Q1027.855336720902 479.5644556655017 1027.855336720902 484.41011188426256L1027.855336720902 484.41011188426256Q1027.855336720902 488.803506855939 1030.1381792061848 491.7539730869178Q1032.3994854416064 494.7044393178967 1036.3406191661988 496.21197680817784Q1040.2817528907908 497.719514298459 1045.3427716081633 497.719514298459ZM1135.1489335291976 509.6075242218189L1135.1489335291976 509.6075242218189Q1126.4267523354279 509.6075242218189 1119.664369879024 507.0877829880632Q1112.880451172759 504.54650550444643 1108.4870562010824 499.5500955366575Q1104.0936612294058 494.55368556886856 1102.5861237391246 487.27443311579674L1102.5861237391246 487.27443311579674L1115.5294099056814 484.1732131357898Q1117.35999114388 491.1509580908054 1122.3779373615303 494.40293181984043Q1127.4174198290416 497.6549055488755 1134.9981797801693 497.6549055488755L1134.9981797801693 497.6549055488755Q1143.8495784731058 497.6549055488755 1149.1044234392289 493.8645255733115Q1154.3808046552126 490.0741455977474 1154.3808046552126 484.8623731313469L1154.3808046552126 484.8623731313469Q1154.3808046552126 480.46897815967037 1151.3011209250672 477.5615844284139Q1148.2429734447824 474.6326544472962 1141.9543884853238 473.18972570659855L1141.9543884853238 473.18972570659855L1127.8696810761257 469.87314322798005Q1116.3693236502668 467.1380394956128 1110.7698986863652 461.4309332824056Q1105.1704737224636 455.70229081933724 1105.1704737224636 446.76474712695614L1105.1704737224636 446.76474712695614Q1105.1704737224636 439.50703092374545 1109.2408249462228 433.95067845956635Q1113.3327124198431 428.37278974552606 1120.4181386241644 425.2284972657968Q1127.503564828486 422.0842047860676 1136.5057172704505 422.0842047860676L1136.5057172704505 422.0842047860676Q1145.2063622143587 422.0842047860676 1151.3011209250672 424.711627269129Q1157.3958796357751 427.3175135023293 1161.2293321110615 431.9047347227562Q1165.0412483364867 436.47041969332196 1166.9364383242687 442.45749715472425L1166.9364383242687 442.45749715472425L1154.5961671538244 445.6448621341758Q1152.8517309150707 441.1007134134712 1148.8029159411726 437.37494218749066Q1144.7541009672746 433.6707072113713 1136.591862269895 433.6707072113713L1136.591862269895 433.6707072113713Q1129.0111023187674 433.6707072113713 1123.971619851256 437.1595796888791Q1118.9321373837447 440.6484521663869 1118.9321373837447 445.94636963223206L1118.9321373837447 445.94636963223206Q1118.9321373837447 450.6412721019648 1122.3564011116691 453.4840570836378Q1125.759128589732 456.3053058154497 1133.1675985419706 458.0497420542036L1133.1675985419706 458.0497420542036L1145.9601309594996 461.086353284627Q1157.4820246352197 463.7999207671331 1162.9953045996763 469.5285632302015Q1168.5301208139945 475.23566944340865 1168.5301208139945 483.9578506371782L1168.5301208139945 483.9578506371782Q1168.5301208139945 491.366320589417 1164.3305520910685 497.1595718020688Q1160.130983368142 502.95282301472065 1152.5932959167367 506.29094174320034Q1145.0556084653308 509.6075242218189 1135.1489335291976 509.6075242218189ZM1216.9220742520192 508.8537554766783L1216.9220742520192 508.8537554766783Q1208.3506468072778 508.8537554766783 1201.8897718489302 505.3433467493093Q1195.407360640721 501.81140177207925 1191.8108069139075 494.7044393178967Q1188.214253187094 487.57594061385294 1188.214253187094 476.91549693257906L1188.214253187094 476.91549693257906L1188.214253187094 423.16101727912553L1201.846699349208 423.16101727912553L1201.846699349208 475.77407568993766Q1201.846699349208 485.52999687704283 1206.993863066025 491.06481309136075Q1212.141026782842 496.59962930567866 1220.9924254757784 496.59962930567866L1220.9924254757784 496.59962930567866Q1227.0656479366253 496.59962930567866 1231.8682316556637 493.9506705727561Q1236.6708153747022 491.3017118398335 1239.470527856653 486.1760843728776Q1242.2702403386038 481.0719931557829 1242.2702403386038 473.8788857021556L1242.2702403386038 473.8788857021556L1242.2702403386038 423.16101727912553L1255.9888315001622 423.16101727912553L1255.9888315001622 507.7984792334815L1242.808646585133 507.7984792334815L1242.808646585133 487.27443311579674L1244.61769157347 487.27443311579674Q1240.6980940987391 499.16244303915664 1233.4619141453895 504.0080992579175Q1226.2257341920404 508.8537554766783 1216.9220742520192 508.8537554766783ZM1290.2745412791278 508.7891467270948L1290.2745412791278 508.7891467270948Q1286.0319000564796 508.7891467270948 1283.0383613257782 505.7956079963937Q1280.0663588449383 502.8020692656925 1280.0663588449383 498.5594280430442L1280.0663588449383 498.5594280430442Q1280.0663588449383 494.3167868203958 1283.0383613257782 491.3232480896947Q1286.0319000564796 488.3297093589935 1290.2745412791278 488.3297093589935L1290.2745412791278 488.3297093589935Q1294.517182501776 488.3297093589935 1297.5107212324774 491.3232480896947Q1300.5042599631784 494.3167868203958 1300.5042599631784 498.5594280430442L1300.5042599631784 498.5594280430442Q1300.5042599631784 502.8020692656925 1297.5107212324774 505.7956079963937Q1294.517182501776 508.7891467270948 1290.2745412791278 508.7891467270948ZM1358.8674970869201 541.265811517723L1358.8674970869201 541.265811517723Q1349.4776921474545 541.265811517723 1342.629164691606 538.8752877831344Q1335.7806372357572 536.4847640485457 1331.2364885150528 532.5651665738146Q1326.6923397943478 528.6240328492225 1324.0433810614254 523.9937391290732L1324.0433810614254 523.9937391290732L1335.0914772402002 516.8867766748907Q1336.9220584783989 519.2988366593406 1339.6140897110436 522.2493028903193Q1342.2845846938276 525.2213053711594 1346.8718059142543 527.2887853578306Q1351.459027134681 529.3778015943631 1358.8674970869201 529.3778015943631L1358.8674970869201 529.3778015943631Q1369.0110707715262 529.3778015943631 1375.5796269791795 524.5321453756023Q1382.126646936972 519.6864891568414 1382.126646936972 509.2414079741792L1382.126646936972 509.2414079741792L1382.126646936972 492.2708430835857L1380.8344719453025 492.2708430835857Q1379.3915432046047 494.7044393178967 1376.7856569714045 498.0210217965152Q1374.1797707382043 501.35914052499487 1369.2910420197209 503.90041800861167Q1364.4023133012379 506.44169549222846 1356.2185383539972 506.44169549222846L1356.2185383539972 506.44169549222846Q1346.0749646693912 506.44169549222846 1337.9773347215955 501.6175755233288Q1329.8797047737994 496.8149918042903 1325.184802304067 487.57594061385294Q1320.4898998343342 478.3368894234156 1320.4898998343342 465.09209575880266L1320.4898998343342 465.09209575880266Q1320.4898998343342 451.9980558432178 1325.098657304622 442.34981590541844Q1329.7289510247715 432.68003971775795 1337.8696534722899 427.3821222519128Q1346.0103559198078 422.0842047860676 1356.520045852054 422.0842047860676L1356.520045852054 422.0842047860676Q1364.7038207992941 422.0842047860676 1369.5925495177776 424.7762360187125Q1374.4812782362606 427.4682672513574 1377.130236969183 430.95713972886523Q1379.7791957021054 434.42447595651186 1381.2221244428033 436.7073184417947L1381.2221244428033 436.7073184417947L1382.4927631846117 436.7073184417947L1382.4927631846117 423.16101727912553L1395.759093099086 423.16101727912553L1395.759093099086 509.9951767193198Q1395.759093099086 520.8925191490664 1390.8272918808802 527.8271916043595Q1385.895490662675 534.7618640596529 1377.5394257165453 538.013837788688Q1369.1833607704152 541.265811517723 1358.8674970869201 541.265811517723ZM1358.50138083928 494.3167868203958L1358.50138083928 494.3167868203958Q1366.2113582895754 494.3167868203958 1371.5308120052819 490.8063780930268Q1376.8287294711267 487.27443311579674 1379.542296953633 480.6628044084208Q1382.277400686 474.02963945118375 1382.277400686 464.79058826074646L1382.277400686 464.79058826074646Q1382.277400686 455.78843581878186 1379.5853694533553 448.9399083629332Q1376.8933382207106 442.06984465722337 1371.5954207548652 438.17178343235355Q1366.29750328902 434.27372220748373 1358.50138083928 434.27372220748373L1358.50138083928 434.27372220748373Q1350.4683596410678 434.27372220748373 1345.1058334256395 438.4086821808263Q1339.7217709603497 442.5436421541689 1337.0297397277045 449.4137058598787Q1334.3377084950594 456.3053058154497 1334.3377084950594 464.79058826074646L1334.3377084950594 464.79058826074646Q1334.3377084950594 473.49123320465475 1337.0728122274268 480.1674706616142Q1339.786379709933 486.82217186871236 1345.1704421752224 490.56947934455405Q1350.5545046405123 494.3167868203958 1358.50138083928 494.3167868203958ZM1433.2967766070865 507.7984792334815L1419.6643304449726 507.7984792334815L1419.6643304449726 423.16101727912553L1433.2967766070865 423.16101727912553L1433.2967766070865 507.7984792334815ZM1426.5559304005437 409.29167236853897L1426.5559304005437 409.29167236853897Q1422.7009416753963 409.29167236853897 1419.9012291934455 406.6427136356164Q1417.1015167114947 403.99375490269375 1417.1015167114947 400.2895199265744L1417.1015167114947 400.2895199265744Q1417.1015167114947 396.49913995101036 1419.9012291934455 393.89325371781007Q1422.7009416753963 391.26583123474865 1426.5559304005437 391.26583123474865L1426.5559304005437 391.26583123474865Q1430.4970641251357 391.26583123474865 1433.2967766070865 393.89325371781007Q1436.0964890890373 396.49913995101036 1436.0964890890373 400.2895199265744L1436.0964890890373 400.2895199265744Q1436.0964890890373 403.99375490269375 1433.2967766070865 406.6427136356164Q1430.4970641251357 409.29167236853897 1426.5559304005437 409.29167236853897ZM1446.778469020172 423.16101727912553L1490.5401287380478 423.16101727912553L1490.5401287380478 434.81212845401274L1446.778469020172 434.81212845401274L1446.778469020172 423.16101727912553ZM1459.5063926881176 486.908316868157L1459.5063926881176 403.0030874090805L1473.1173026003698 403.0030874090805L1473.1173026003698 485.83150437509903Q1473.1173026003698 491.51707433844507 1475.443217585375 494.12296057164536Q1477.7475963205193 496.7503830547068 1483.1316587858091 496.7503830547068L1483.1316587858091 496.7503830547068Q1484.4022975276175 496.7503830547068 1486.4051687647052 496.4488755566506Q1488.4295762516545 496.14736805859434 1490.0878674909636 495.84586056053814L1490.0878674909636 495.84586056053814L1492.887579972914 507.34621798639716Q1490.7770274865206 508.09998673153774 1488.0849962538755 508.4876392290386Q1485.3929650212308 508.8537554766783 1482.744006288308 508.8537554766783L1482.744006288308 508.8537554766783Q1471.760518859117 508.8537554766783 1465.6226876486867 503.06050426402646Q1459.5063926881176 497.2672530513746 1459.5063926881176 486.908316868157L1459.5063926881176 486.908316868157ZM1521.5738647879784 457.0806108104514L1521.5738647879784 457.0806108104514L1521.5738647879784 507.7984792334815L1507.9629548757257 507.7984792334815L1507.9629548757257 394.9916024607292L1521.5738647879784 394.9916024607292L1521.5738647879784 443.6635271469492L1519.2264135531118 443.6635271469492Q1523.1029385281208 431.9262709726174 1530.2529734820255 427.01600600427304Q1537.4030084359301 422.0842047860676 1547.0297121238686 422.0842047860676L1547.0297121238686 422.0842047860676Q1555.579603318749 422.0842047860676 1562.0620145269577 425.6161497632977Q1568.5228894853058 429.1265584906667 1572.1194432121192 436.2119846949881Q1575.7159969389327 443.29741089930945 1575.7159969389327 454.04399958002796L1575.7159969389327 454.04399958002796L1575.7159969389327 507.7984792334815L1562.0189420272354 507.7984792334815L1562.0189420272354 455.1854208226694Q1562.0189420272354 445.4079633857031 1556.9148508101407 439.87314717138514Q1551.7892233431849 434.35986720692836 1542.9378246502483 434.35986720692836L1542.9378246502483 434.35986720692836Q1536.8861384392626 434.35986720692836 1532.0404822205019 437.00882593985096Q1527.1948260017411 439.6577846727736 1524.3951135197904 444.718803390146Q1521.5738647879784 449.80135835737957 1521.5738647879784 457.0806108104514ZM1628.350591599606 508.8537554766783L1628.350591599606 508.8537554766783Q1619.7791641548647 508.8537554766783 1613.3182891965166 505.3433467493093Q1606.8358779883079 501.81140177207925 1603.2393242614944 494.7044393178967Q1599.6427705346805 487.57594061385294 1599.6427705346805 476.91549693257906L1599.6427705346805 476.91549693257906L1599.6427705346805 423.16101727912553L1613.2752166967948 423.16101727912553L1613.2752166967948 475.77407568993766Q1613.2752166967948 485.52999687704283 1618.4223804136113 491.06481309136075Q1623.5695441304288 496.59962930567866 1632.4209428233653 496.59962930567866L1632.4209428233653 496.59962930567866Q1638.4941652842117 496.59962930567866 1643.2967490032506 493.9506705727561Q1648.099332722289 491.3017118398335 1650.8990452042399 486.1760843728776Q1653.6987576861902 481.0719931557829 1653.6987576861902 473.8788857021556L1653.6987576861902 473.8788857021556L1653.6987576861902 423.16101727912553L1667.417348847749 423.16101727912553L1667.417348847749 507.7984792334815L1654.2371639327193 507.7984792334815L1654.2371639327193 487.27443311579674L1656.0462089210569 487.27443311579674Q1652.105075196465 499.16244303915664 1644.8904314929764 504.0080992579175Q1637.6542515396268 508.8537554766783 1628.350591599606 508.8537554766783ZM1730.6262421902516 509.6075242218189L1730.6262421902516 509.6075242218189Q1722.5932209920388 509.6075242218189 1717.6829560236947 506.85088423959047Q1712.7511548054895 504.0942442573621 1710.1021960725666 500.562299280132Q1707.4532373396441 497.05189055276304 1706.0318448488074 494.7044393178967L1706.0318448488074 494.7044393178967L1704.5027711086655 494.7044393178967L1704.5027711086655 507.7984792334815L1691.3441224434969 507.7984792334815L1691.3441224434969 394.9916024607292L1704.9550323557496 394.9916024607292L1704.9550323557496 436.7073184417947L1706.0318448488074 436.7073184417947Q1707.4532373396441 434.42447595651186 1710.0375873229832 430.97867597872636Q1712.6004010564611 427.53287600094086 1717.4460572752218 424.8193085184348Q1722.2917134939826 422.0842047860676 1730.5616334406677 422.0842047860676L1730.5616334406677 422.0842047860676Q1741.1574683723584 422.0842047860676 1749.2120258204318 427.3821222519128Q1757.2881195183663 432.68003971775795 1761.8538044889324 442.50056965444656Q1766.441025709359 452.29956334127405 1766.441025709359 465.6951107549151L1766.441025709359 465.6951107549151Q1766.441025709359 479.17680316800084 1761.8968769886546 489.01886935455065Q1757.3527282679502 498.8609355411004 1749.2981708198768 504.24499800639023Q1741.2220771219418 509.6075242218189 1730.6262421902516 509.6075242218189ZM1728.5802984534412 497.41800680040274L1728.5802984534412 497.41800680040274Q1736.527174652209 497.41800680040274 1741.8681646177765 493.1538293278932Q1747.2091545833441 488.8681156055225 1749.9011858159888 481.631935652173Q1752.593217048634 474.41729194868464 1752.593217048634 465.544357005887L1752.593217048634 465.544357005887Q1752.593217048634 456.757567062534 1749.944258315711 449.69367710807376Q1747.2952995827886 442.6082509037524 1741.954309617221 438.4517546805486Q1736.6133196516535 434.27372220748373 1728.5802984534412 434.27372220748373L1728.5802984534412 434.27372220748373Q1720.7841760037018 434.27372220748373 1715.4862585378564 438.21485593207586Q1710.1883410720116 442.15598965666805 1707.4963098393664 449.1552708615448Q1704.8042786067213 456.15455206642156 1704.8042786067213 465.544357005887L1704.8042786067213 465.544357005887Q1704.8042786067213 474.93416194535246 1707.5393823390887 482.12726939897965Q1710.252949821595 489.32037685260684 1715.593939787162 493.3691918265048Q1720.9349297527297 497.41800680040274 1728.5802984534412 497.41800680040274ZM1796.6563842645655 508.7891467270948L1796.6563842645655 508.7891467270948Q1792.4137430419173 508.7891467270948 1789.420204311216 505.7956079963937Q1786.426665580515 502.8020692656925 1786.426665580515 498.5594280430442L1786.426665580515 498.5594280430442Q1786.426665580515 494.3167868203958 1789.420204311216 491.3232480896947Q1792.4137430419173 488.3297093589935 1796.6563842645655 488.3297093589935L1796.6563842645655 488.3297093589935Q1800.8990254872142 488.3297093589935 1803.871027968054 491.3232480896947Q1806.8645666987554 494.3167868203958 1806.8645666987554 498.5594280430442L1806.8645666987554 498.5594280430442Q1806.8645666987554 502.8020692656925 1803.871027968054 505.7956079963937Q1800.8990254872142 508.7891467270948 1796.6563842645655 508.7891467270948ZM1844.574540205645 507.7984792334815L1830.9420940435316 507.7984792334815L1830.9420940435316 423.16101727912553L1844.574540205645 423.16101727912553L1844.574540205645 507.7984792334815ZM1837.8336939991023 409.29167236853897L1837.8336939991023 409.29167236853897Q1833.9787052739548 409.29167236853897 1831.178992792004 406.6427136356164Q1828.3792803100532 403.99375490269375 1828.3792803100532 400.2895199265744L1828.3792803100532 400.2895199265744Q1828.3792803100532 396.49913995101036 1831.178992792004 393.89325371781007Q1833.9787052739548 391.26583123474865 1837.8336939991023 391.26583123474865L1837.8336939991023 391.26583123474865Q1841.7748277236942 391.26583123474865 1844.574540205645 393.89325371781007Q1847.3742526875958 396.49913995101036 1847.3742526875958 400.2895199265744L1847.3742526875958 400.2895199265744Q1847.3742526875958 403.99375490269375 1844.574540205645 406.6427136356164Q1841.7748277236942 409.29167236853897 1837.8336939991023 409.29167236853897ZM1902.959313579248 509.6075242218189L1902.959313579248 509.6075242218189Q1891.4374199035274 509.6075242218189 1882.7798474593415 504.1588530069456Q1874.1007387652944 498.7101817920723 1869.2550825465337 488.8681156055225Q1864.4094263277725 479.0260494189727 1864.4094263277725 465.99661825297136L1864.4094263277725 465.99661825297136Q1864.4094263277725 452.7518245883584 1869.2550825465337 442.8666859020863Q1874.1007387652944 433.00308346567533 1882.7798474593415 427.53287600094086Q1891.4374199035274 422.0842047860676 1902.959313579248 422.0842047860676L1902.959313579248 422.0842047860676Q1914.5458160045514 422.0842047860676 1923.24646094846 427.53287600094086Q1931.9471058923682 433.00308346567533 1936.792762111129 442.8666859020863Q1941.63841832989 452.7518245883584 1941.63841832989 465.99661825297136L1941.63841832989 465.99661825297136Q1941.63841832989 479.0260494189727 1936.792762111129 488.8681156055225Q1931.9471058923682 498.7101817920723 1923.24646094846 504.1588530069456Q1914.5458160045514 509.6075242218189 1902.959313579248 509.6075242218189ZM1902.959313579248 497.41800680040274L1902.959313579248 497.41800680040274Q1911.5092047741282 497.41800680040274 1917.044020988446 493.0246118287262Q1922.557300952903 488.6527531069109 1925.2062596858254 481.4811819031449Q1927.8552184187483 474.33114694924 1927.8552184187483 465.99661825297136L1927.8552184187483 465.99661825297136Q1927.8552184187483 457.5974808071192 1925.2062596858254 450.3613008537697Q1922.557300952903 443.1466571502813 1917.044020988446 438.71018967888256Q1911.5092047741282 434.27372220748373 1902.959313579248 434.27372220748373L1902.959313579248 434.27372220748373Q1894.474031133951 434.27372220748373 1889.0253599190778 438.71018967888256Q1883.5766887042046 443.1466571502813 1880.9277299712817 450.3397646039086Q1878.2787712383592 457.53287205753577 1878.2787712383592 465.99661825297136L1878.2787712383592 465.99661825297136Q1878.2787712383592 474.33114694924 1880.9277299712817 481.4811819031449Q1883.5766887042046 488.6527531069109 1889.0253599190778 493.0246118287262Q1894.474031133951 497.41800680040274 1902.959313579248 497.41800680040274Z " fill="#ebe2b0" transform="matrix(0.450650307317251,0,0,0.450650307317251,0,89.8771580226286)"/></g></svg>