<svg xmlns="http://www.w3.org/2000/svg" version="1.1" xmlns:xlink="http://www.w3.org/1999/xlink" xmlns:svgjs="http://svgjs.dev/svgjs" width="100%" height="100%" viewBox="0 0 1000 600"><rect width="1000" height="600" x="0" y="0" fill="#f7f7f7"/><g><circle r="166.66666666666666" cx="439.5604044596354" cy="461.7827490803927" fill="#006838" transform="matrix(0.45805356706190364,0,0,0.4580535670619036,0,88.47876160624266)"/><path d="M460.30896412812314 402.82798390673014L455.534953377431 412.2065139021726Q454.6027500947515 413.7319374556482 453.58580105910113 414.494649232386Q452.56885202345075 415.2573610091238 450.9586827170043 415.2573610091238L450.9586827170043 415.2573610091238Q449.23551907326333 415.2573610091238 446.94738374304995 413.5059487810592Q444.6592484128366 411.7827851373183 441.12817537238385 409.6923898973703Q437.6253509162548 407.63024324174586 432.7100972439445 405.87883101368135Q427.76659498731067 404.1556673699404 420.76094607505246 404.1556673699404L420.76094607505246 404.1556673699404Q414.1507773433249 404.1556673699404 409.06603216507295 405.93532818232853Q403.98128698682103 407.71498899471675 400.5632082836628 410.7658361016679Q397.14512958050454 413.81668320861905 395.42196593676357 417.9409765198679Q393.69880229302265 422.06526983111667 393.69880229302265 426.83928058180874L393.69880229302265 426.83928058180874Q393.69880229302265 432.9409747957111 396.69315223132656 436.95227376966545Q399.6875021696305 440.96357274361975 404.6310044262643 443.8166797603056Q409.5745066828982 446.6697867769914 415.8174438184186 448.7601820169394Q422.06038095393905 450.8505772568874 428.642301101343 453.08221541845353Q435.19597266442327 455.31385358001967 441.4389097999437 458.11046342805827Q447.7100955197878 460.9070732760968 452.625349192098 465.1726095089637Q457.56885144873183 469.4381457418306 460.56320138703575 475.65283429302747Q463.55755132533966 481.8675228442243 463.55755132533966 490.90706982778335L463.55755132533966 490.90706982778335Q463.55755132533966 500.4550913291675 460.30896412812314 508.84492087328323Q457.0603769309066 517.2347504173989 450.78919121106253 523.4494389685958Q444.5462540755421 529.6641275197926 435.4502099233358 533.223449144569Q426.3541657711296 536.7827707693452 414.743997614121 536.7827707693452L414.743997614121 536.7827707693452Q400.61970545231003 536.7827707693452 388.98128871097776 531.6415284224461Q377.3146233853219 526.5002860755469 369.09428534714795 517.7432249352241L369.09428534714795 517.7432249352241L374.772250796196 508.3929435241053Q375.591459741581 507.29124873548403 376.7779002831731 506.5285369587462Q377.9360922404416 505.7658251820084 379.34852145662273 505.7658251820084L379.34852145662273 505.7658251820084Q381.495413865218 505.7658251820084 384.2355265446093 508.0539605122218Q386.9756392240006 510.3420958424352 391.0999325352494 513.0822085218265Q395.22422584649826 515.8223212012178 401.07168280148795 518.1104565314313Q406.9191397564777 520.3985918616445 415.3654664692407 520.3985918616445L415.3654664692407 520.3985918616445Q422.3711153814989 520.3985918616445 427.87958932460515 518.4776881276382Q433.3598146833878 516.5285358093083 437.1733735670768 513.0257113531793Q440.9869324507657 509.5228868970501 443.02083052206655 504.63588180906356Q445.0547285933673 499.74887672107695 445.0547285933673 493.76017684446913L445.0547285933673 493.76017684446913Q445.0547285933673 487.1500081127416 442.06037865506335 482.91272046419834Q439.06602871675943 478.7036813999786 434.1790236287728 475.8505743832928Q429.2920185407863 472.997467366607 423.04908140526584 471.02006646395347Q416.77789568542175 469.04266556129994 410.22422412234147 466.95227032135193Q403.6705525592612 464.86187508140387 397.3993668394171 462.12176240201256Q391.15642970389666 459.38164972262126 386.26942461591005 455.0031191524598Q381.3824195279235 450.62458858229843 378.38806958961953 444.07091701921814Q375.3937196513156 437.51724545613786 375.3937196513156 427.8562296174592L375.3937196513156 427.8562296174592Q375.3937196513156 420.1161175127868 378.38806958961953 412.91272851026315Q381.3824195279235 405.681090923416 387.0886335612951 400.0878712273388Q392.79484759466675 394.4946515312617 401.18467713878243 391.13306999675063Q409.5745066828982 387.7997370465633 420.4502116474926 387.7997370465633L420.4502116474926 387.7997370465633Q432.6536000752973 387.7997370465633 442.7100960945067 391.64154451457586Q452.7948406980397 395.5116005669121 460.30896412812314 402.82798390673014L460.30896412812314 402.82798390673014ZM487.8795824279781 432.1217658503261L505.9586763950962 432.1217658503261L505.9586763950962 535.1443528785753L487.8795824279781 535.1443528785753L487.8795824279781 432.1217658503261ZM510.0264725376977 399.77713679977893L510.0264725376977 399.77713679977893Q510.0264725376977 402.43250372619946 508.98127491772374 404.72063905641284Q507.90782871342606 407.00877438662616 506.1281679010379 408.7884351990144Q504.34850708864974 410.56809601140253 502.0038745897891 411.5850450470529Q499.6592420909285 412.60199408270336 497.0321237488316 412.60199408270336L497.0321237488316 412.60199408270336Q494.37675682241115 412.60199408270336 492.08862149219783 411.5850450470529Q489.80048616198445 410.56809601140253 488.02082534959624 408.7884351990144Q486.2411645372081 407.00877438662616 485.2242155015577 404.72063905641284Q484.2072664659073 402.43250372619946 484.2072664659073 399.77713679977893L484.2072664659073 399.77713679977893Q484.2072664659073 397.15001845768217 485.2242155015577 394.74888879017425Q486.2411645372081 392.37600770699004 488.02082534959624 390.5963468946018Q489.80048616198445 388.81668608221366 492.08862149219783 387.7997370465633Q494.37675682241115 386.78278801091284 497.0321237488316 386.78278801091284L497.0321237488316 386.78278801091284Q499.6592420909285 386.78278801091284 502.0038745897891 387.7997370465633Q504.34850708864974 388.81668608221366 506.1281679010379 390.5963468946018Q507.90782871342606 392.37600770699004 508.98127491772374 394.74888879017425Q510.0264725376977 397.15001845768217 510.0264725376977 399.77713679977893Z " fill="#f7f7f7" transform="matrix(0.45805356706190364,0,0,0.4580535670619036,0,88.47876160624266)"/><path d="M747.0259940954909 432.64193441926346L743.7616752036611 437.9464526184867Q742.7642444311576 439.75996311394766 740.7240451237641 439.75996311394766L740.7240451237641 439.75996311394766Q739.4999255393279 439.75996311394766 737.9584416181862 438.8532078662172Q736.4169576970444 437.9464526184867 734.1727384589115 436.85834632121015Q731.9285192207785 435.7475711427403 728.8228824973017 434.8181470138166Q725.7172457738249 433.8660540036996 721.478164990685 433.8660540036996L721.478164990685 433.8660540036996Q717.8058062373766 433.8660540036996 714.8588516822525 434.8181470138166Q711.9345660083218 435.7475711427403 709.8490289385418 437.37973058865515Q707.7634918687617 439.01189003457 706.6527166902918 441.18810262912314Q705.5646103930153 443.341646342483 705.5646103930153 445.88056103612826L705.5646103930153 445.88056103612826Q705.5646103930153 449.0542044031849 707.4007897696695 451.1850792353515Q709.2369691463236 453.29328518632485 712.2519303450274 454.8574379886599Q715.2668915437313 456.3989219098017 719.0979324653924 457.5777037318513Q722.9516422682469 458.75648555390086 726.9867031206475 460.1166184254966Q731.0217639730481 461.454082415899 734.8528048947094 463.08624186181385Q738.6838458163705 464.7184013077287 741.7214758962675 467.16664047660095Q744.7364370949714 469.61487964547325 746.5726164716256 473.1738939928153Q748.4087958482799 476.7102394589641 748.4087958482799 481.6973933214817L748.4087958482799 481.6973933214817Q748.4087958482799 487.4099513821836 746.3685965408863 492.2610919575416Q744.3283972334928 497.1122325328996 740.3160052622854 500.67124688024165Q736.3262821722712 504.23026122758375 730.5230485867963 506.2704605349773Q724.7424838825146 508.31065984237085 717.148408682772 508.31065984237085L717.148408682772 508.31065984237085Q708.488896066946 508.31065984237085 701.4842117782282 505.47704969321313Q694.4568586083171 502.6661084252487 689.5603802705725 498.2683454737559L689.5603802705725 498.2683454737559L692.983381330755 492.71446958140683Q693.6407788853596 491.64903216532355 694.54753413309 491.08231013549204Q695.4316204996273 490.51558810566047 696.9050977771893 490.51558810566047L696.9050977771893 490.51558810566047Q698.3785750547513 490.51558810566047 700.0107345006661 491.64903216532355Q701.642893946581 492.80514510617985 703.977788709487 494.1879468589688Q706.2900145911997 495.5707486117578 709.5996712454158 496.7041926714209Q712.909327899632 497.8603056122772 717.8738128809564 497.8603056122772L717.8738128809564 497.8603056122772Q722.1355625452895 497.8603056122772 725.3092059123462 496.7495304338074Q728.4828492794028 495.66142413653085 730.6137241115694 493.7799069974901Q732.744598943736 491.89838985844943 733.7646985974327 489.45015068957713Q734.7847982511296 487.0019115207049 734.7847982511296 484.236308015127L734.7847982511296 484.236308015127Q734.7847982511296 480.7906380737512 732.9486188744754 478.54641883561834Q731.1124394978211 476.3021995974854 728.0748094179241 474.71537791395707Q725.0598482192203 473.1285562304288 721.1834695351725 471.94977440837914Q717.3070908511248 470.77099258632956 713.2720299987243 469.4561974771204Q709.2369691463236 468.1414023679112 705.3605904622759 466.4865740408031Q701.4842117782282 464.8090768325017 698.4692505795244 462.27016213885645Q695.4316204996273 459.7539163264044 693.5954411229732 456.0362198107095Q691.759261746319 452.3185232950146 691.759261746319 447.01400509579133L691.759261746319 447.01400509579133Q691.759261746319 442.27620892639965 693.7314544101328 437.92378373729343Q695.6809781927532 433.54868966699394 699.4440124708347 430.2390330127777Q703.1843778677228 426.92937635856157 708.6702471164922 424.97985257594104Q714.1334474840683 423.03032879332056 721.138131772786 423.03032879332056L721.138131772786 423.03032879332056Q729.2989290023602 423.03032879332056 735.8048979048262 425.5919123681591Q742.2881979260992 428.15349594299767 747.0259940954909 432.64193441926346L747.0259940954909 432.64193441926346ZM768.878795565795 424.32245502133645L783.4095484106758 424.32245502133645L783.4095484106758 506.9958647331617L768.878795565795 506.9958647331617L768.878795565795 424.32245502133645ZM786.6738673025054 398.36658605505187L786.6738673025054 398.36658605505187Q786.6738673025054 400.49746088721844 785.8124498171615 402.33364026387267Q784.9737012130108 404.16981964052684 783.5455616978353 405.5979591557023Q782.1174221826598 407.02609867087784 780.2359050436191 407.84217839383524Q778.3543879045784 408.65825811679264 776.2235130724118 408.65825811679264L776.2235130724118 408.65825811679264Q774.1153071214385 408.65825811679264 772.2791277447843 407.84217839383524Q770.4429483681301 407.02609867087784 769.0148088529546 405.5979591557023Q767.5866693377791 404.16981964052684 766.7705896148217 402.33364026387267Q765.9545098918643 400.49746088721844 765.9545098918643 398.36658605505187L765.9545098918643 398.36658605505187Q765.9545098918643 396.2583801040785 766.7705896148217 394.3315252026513Q767.5866693377791 392.4273391824173 769.0148088529546 390.99919966724184Q770.4429483681301 389.57106015206637 772.2791277447843 388.7549804291089Q774.1153071214385 387.9389007061515 776.2235130724118 387.9389007061515L776.2235130724118 387.9389007061515Q778.3543879045784 387.9389007061515 780.2359050436191 388.7549804291089Q782.1174221826598 389.57106015206637 783.5455616978353 390.99919966724184Q784.9737012130108 392.4273391824173 785.8124498171615 394.3315252026513Q786.6738673025054 396.2583801040785 786.6738673025054 398.36658605505187ZM834.0971667588087 508.31065984237085L834.0971667588087 508.31065984237085Q824.3042100833197 508.31065984237085 819.045029646483 502.8247905936015Q813.7631803284531 497.3615902260255 813.7631803284531 487.09258704547796L813.7631803284531 487.09258704547796L813.7631803284531 436.49564422211796L803.8115414846112 436.49564422211796Q802.5194152565953 436.49564422211796 801.6126600088649 435.7022333803538Q800.7059047611344 434.9314914197829 800.7059047611344 433.29933197386805L800.7059047611344 433.29933197386805L800.7059047611344 427.51876726958636L814.2618957147049 425.79593229889844L817.6168901313076 400.2481031940926Q817.7755722996604 399.02398360965645 818.6596586661976 398.25324164908557Q819.566413913928 397.4824996885147 820.949215666717 397.4824996885147L820.949215666717 397.4824996885147L828.2939331733338 397.4824996885147L828.2939331733338 425.9546144672513L851.960245139099 425.9546144672513L851.960245139099 436.49564422211796L828.2939331733338 436.49564422211796L828.2939331733338 486.0951562729744Q828.2939331733338 491.33166782861787 830.8328478669791 493.8479136410699Q833.3490936794311 496.38682833471523 837.3614856506385 496.38682833471523L837.3614856506385 496.38682833471523Q839.6510426511579 496.38682833471523 841.3058709782661 495.77476854249716Q842.9833681865673 495.1627087502791 844.2074877710035 494.4373045520947Q845.4316073554396 493.6892314727171 846.2930248407836 493.077171680499Q847.1544423261275 492.465111888281 847.8118398807321 492.465111888281L847.8118398807321 492.465111888281Q848.9452839403951 492.465111888281 849.8520391881257 493.8479136410699L849.8520391881257 493.8479136410699L854.0911199712656 500.784591286208Q850.3280856931841 504.29826787116355 845.0235674939609 506.29312941617053Q839.7190492947377 508.31065984237085 834.0971667588087 508.31065984237085ZM903.3732676854163 423.03032879332056L903.3732676854163 423.03032879332056Q912.440820162721 423.03032879332056 919.7401999069513 426.0452899920243Q927.0395796511815 429.06025119072814 932.1400779196654 434.6141270830772Q937.2405761881492 440.16800297542636 939.983510812534 448.0341047494881Q942.7037765557253 455.9002065235499 942.7037765557253 465.62515655545917L942.7037765557253 465.62515655545917Q942.7037765557253 475.4181132309482 939.983510812534 483.23887724262346Q937.2405761881492 491.08231013549204 932.1400779196654 496.6361860278411Q927.0395796511815 502.1900619201902 919.7401999069513 505.1596853565075Q912.440820162721 508.12930879282476 903.3732676854163 508.12930879282476L903.3732676854163 508.12930879282476Q894.328384089305 508.12930879282476 887.0063354638814 505.1596853565075Q879.7069557196512 502.1900619201902 874.5611196887808 496.6361860278411Q869.4379525391037 491.08231013549204 866.6496801523325 483.23887724262346Q863.8840766467546 475.4181132309482 863.8840766467546 465.62515655545917L863.8840766467546 465.62515655545917Q863.8840766467546 455.9002065235499 866.6496801523325 448.0341047494881Q869.4379525391037 440.16800297542636 874.5611196887808 434.6141270830772Q879.7069557196512 429.06025119072814 887.0063354638814 426.0452899920243Q894.328384089305 423.03032879332056 903.3732676854163 423.03032879332056ZM903.3732676854163 496.79486819619393L903.3732676854163 496.79486819619393Q915.6144635297777 496.79486819619393 921.6670548083786 488.5887332042332Q927.6969772057861 480.3825982122725 927.6969772057861 465.69316319903896L927.6969772057861 465.69316319903896Q927.6969772057861 450.9357215422256 921.6670548083786 442.6842487878784Q915.6144635297777 434.4554449147244 903.3732676854163 434.4554449147244L903.3732676854163 434.4554449147244Q897.184663119656 434.4554449147244 892.6055491186171 436.56365086569775Q888.0264351175782 438.6945256978643 884.9661361564879 442.6842487878784Q881.9058371953976 446.6966407590857 880.4096910366424 452.52254322575396Q878.8908759966938 458.34844569242216 878.8908759966938 465.69316319903896L878.8908759966938 465.69316319903896Q878.8908759966938 473.0378807056557 880.4096910366424 478.84111429113074Q881.9058371953976 484.6443478766057 884.9661361564879 488.5887332042332Q888.0264351175782 492.555787413054 892.6055491186171 494.66399336402736Q897.184663119656 496.79486819619393 903.3732676854163 496.79486819619393ZM975.1882833056693 506.9958647331617L960.6575304607886 506.9958647331617L960.6575304607886 424.32245502133645L968.9996787399089 424.32245502133645Q971.357242384008 424.32245502133645 972.2639976317384 425.2292102690669Q973.1480839982758 426.1132966356041 973.4881172161747 428.33484699254376L973.4881172161747 428.33484699254376L974.4628791074849 441.21077151031636Q978.7019598906248 432.57392777568367 984.9359022187718 427.7227872003257Q991.192513428112 422.84897774377447 999.6026683508121 422.84897774377447L999.6026683508121 422.84897774377447Q1003.0256694109946 422.84897774377447 1005.7912729165724 423.6423885855386Q1008.5795453033437 424.41313054610947 1010.9371089474429 425.79593229889844L1010.9371089474429 425.79593229889844L1009.0555918084021 436.65432639047077Q1008.4888697785706 438.6945256978643 1006.53934599595 438.6945256978643L1006.53934599595 438.6945256978643Q1005.3832330550938 438.6945256978643 1003.0256694109946 437.92378373729343Q1000.6454368857021 437.13037289552926 996.4063561025622 437.13037289552926L996.4063561025622 437.13037289552926Q988.8122809028196 437.13037289552926 983.7117826343357 441.5508047282153Q978.6112843658518 445.94856767970805 975.1882833056693 454.35872260240814L975.1882833056693 454.35872260240814L975.1882833056693 506.9958647331617ZM1084.066919676905 454.10936490928225L1084.066919676905 506.9958647331617L1077.6062885368253 506.9958647331617Q1075.498082585852 506.9958647331617 1074.1832874766428 506.3384671785571Q1072.8684923674336 505.6810696239525 1072.460452505955 503.57286367297917L1072.460452505955 503.57286367297917L1070.82829306004 495.88811294846346Q1067.5639741682105 498.8350675035875 1064.481006325927 501.1699622664934Q1061.37536960245 503.48218814820615 1057.9523685422675 505.06900983173443Q1054.5066986008917 506.678500396456 1050.630319916844 507.49458011941346Q1046.7539412327963 508.31065984237085 1042.038813944598 508.31065984237085L1042.038813944598 508.31065984237085Q1037.210342250433 508.31065984237085 1033.0165992296797 506.9505269707751Q1028.800187327733 505.6130629803727 1025.7172194854495 502.9154661183746Q1022.6115827619726 500.21786925637645 1020.7754033853184 496.09213287920284Q1018.9392240086643 491.98906538322245 1018.9392240086643 486.3445139661003L1018.9392240086643 486.3445139661003Q1018.9392240086643 481.4480356283558 1021.6368208706624 476.9142593897035Q1024.3117488514672 472.4031520322444 1030.3190023676816 468.8894754472888Q1036.326255883896 465.3757988623333 1046.0285370346119 463.13157962420036Q1055.7308181853277 460.8873603860675 1069.78552452515 460.5699960493618L1069.78552452515 460.5699960493618L1069.78552452515 454.10936490928225Q1069.78552452515 444.47509040214607 1065.6597881479765 439.5559431832083Q1061.5340517708028 434.6141270830772 1053.4639300660017 434.6141270830772L1053.4639300660017 434.6141270830772Q1048.1594118667786 434.6141270830772 1044.5097219946633 435.9515910734797Q1040.8827010037417 437.31172394507536 1038.2304419041297 438.9665522721835Q1035.5781828045183 440.64404948048485 1033.6739967842843 442.00418235208053Q1031.747141882857 443.341646342483 1029.8656247438164 443.341646342483L1029.8656247438164 443.341646342483Q1028.3921474662543 443.341646342483 1027.3040411689778 442.57090438191204Q1026.1932659905078 441.80016242134116 1025.5358684359035 440.64404948048485L1025.5358684359035 440.64404948048485L1022.9289470986782 435.9969288358662Q1029.7976181002366 429.3776155274338 1037.709057636685 426.1132966356041Q1045.6204971731331 422.84897774377447 1055.2547716802694 422.84897774377447L1055.2547716802694 422.84897774377447Q1062.1914493254076 422.84897774377447 1067.5639741682105 425.13853474429385Q1072.9591678922068 427.4280917448133 1076.6315266455151 431.5084903596004Q1080.3038853988235 435.5888889743875 1082.1854025378643 441.39212255986246Q1084.066919676905 447.1726872641442 1084.066919676905 454.10936490928225L1084.066919676905 454.10936490928225ZM1046.3459013713177 498.1096633054031L1046.3459013713177 498.1096633054031Q1050.199611174172 498.1096633054031 1053.3732545412286 497.31625246363893Q1056.5468979082852 496.54551050306804 1059.380508057443 495.11737098789257Q1062.1914493254076 493.6892314727171 1064.7530329002461 491.64903216532355Q1067.3372853562778 489.60883285793 1069.78552452515 487.0019115207049L1069.78552452515 487.0019115207049L1069.78552452515 469.77356181382606Q1059.7432101565353 470.11359503172497 1052.7158569866242 471.38305237854763Q1045.7111726979062 472.629840844177 1041.2907408652202 474.67004015157056Q1036.8929779137275 476.7102394589641 1034.8981163687204 479.4985118457353Q1032.8805859425202 482.26411535131325 1032.8805859425202 485.6871164114957L1032.8805859425202 485.6871164114957Q1032.8805859425202 488.9514353033254 1033.9460233586035 491.33166782861787Q1035.0114607746868 493.6892314727171 1036.8023023889543 495.2080465126656Q1038.593144003222 496.7041926714209 1041.0413831720944 497.40692798841195Q1043.4896223409667 498.1096633054031 1046.3459013713177 498.1096633054031ZM1156.6980150201152 432.64193441926346L1153.4336961282856 437.9464526184867Q1152.436265355782 439.75996311394766 1150.3960660483885 439.75996311394766L1150.3960660483885 439.75996311394766Q1149.1719464639523 439.75996311394766 1147.6304625428106 438.8532078662172Q1146.0889786216687 437.9464526184867 1143.8447593835358 436.85834632121015Q1141.6005401454029 435.7475711427403 1138.4949034219262 434.8181470138166Q1135.3892666984493 433.8660540036996 1131.1501859153095 433.8660540036996L1131.1501859153095 433.8660540036996Q1127.477827162001 433.8660540036996 1124.530872606877 434.8181470138166Q1121.6065869329461 435.7475711427403 1119.5210498631661 437.37973058865515Q1117.435512793386 439.01189003457 1116.3247376149163 441.18810262912314Q1115.2366313176396 443.341646342483 1115.2366313176396 445.88056103612826L1115.2366313176396 445.88056103612826Q1115.2366313176396 449.0542044031849 1117.0728106942938 451.1850792353515Q1118.908990070948 453.29328518632485 1121.923951269652 454.8574379886599Q1124.9389124683557 456.3989219098017 1128.7699533900168 457.5777037318513Q1132.6236631928714 458.75648555390086 1136.658724045272 460.1166184254966Q1140.6937848976725 461.454082415899 1144.5248258193337 463.08624186181385Q1148.355866740995 464.7184013077287 1151.393496820892 467.16664047660095Q1154.4084580195959 469.61487964547325 1156.24463739625 473.1738939928153Q1158.0808167729042 476.7102394589641 1158.0808167729042 481.6973933214817L1158.0808167729042 481.6973933214817Q1158.0808167729042 487.4099513821836 1156.0406174655106 492.2610919575416Q1154.000418158117 497.1122325328996 1149.9880261869098 500.67124688024165Q1145.9983030968958 504.23026122758375 1140.1950695114208 506.2704605349773Q1134.414504807139 508.31065984237085 1126.8204296073964 508.31065984237085L1126.8204296073964 508.31065984237085Q1118.1609169915705 508.31065984237085 1111.1562327028525 505.47704969321313Q1104.1288795329415 502.6661084252487 1099.2324011951969 498.2683454737559L1099.2324011951969 498.2683454737559L1102.6554022553796 492.71446958140683Q1103.312799809984 491.64903216532355 1104.2195550577146 491.08231013549204Q1105.1036414242517 490.51558810566047 1106.5771187018138 490.51558810566047L1106.5771187018138 490.51558810566047Q1108.0505959793759 490.51558810566047 1109.6827554252907 491.64903216532355Q1111.3149148712055 492.80514510617985 1113.6498096341113 494.1879468589688Q1115.962035515824 495.5707486117578 1119.2716921700403 496.7041926714209Q1122.5813488242566 497.8603056122772 1127.5458338055807 497.8603056122772L1127.5458338055807 497.8603056122772Q1131.8075834699139 497.8603056122772 1134.9812268369706 496.7495304338074Q1138.1548702040272 495.66142413653085 1140.285745036194 493.7799069974901Q1142.4166198683604 491.89838985844943 1143.436719522057 489.45015068957713Q1144.456819175754 487.0019115207049 1144.456819175754 484.236308015127L1144.456819175754 484.236308015127Q1144.456819175754 480.7906380737512 1142.6206397990998 478.54641883561834Q1140.7844604224456 476.3021995974854 1137.7468303425485 474.71537791395707Q1134.7318691438447 473.1285562304288 1130.855490459797 471.94977440837914Q1126.9791117757493 470.77099258632956 1122.9440509233486 469.4561974771204Q1118.908990070948 468.1414023679112 1115.0326113869003 466.4865740408031Q1111.1562327028525 464.8090768325017 1108.1412715041488 462.27016213885645Q1105.1036414242517 459.7539163264044 1103.2674620475975 456.0362198107095Q1101.4312826709433 452.3185232950146 1101.4312826709433 447.01400509579133L1101.4312826709433 447.01400509579133Q1101.4312826709433 442.27620892639965 1103.403475334757 437.92378373729343Q1105.3529991173777 433.54868966699394 1109.116033395459 430.2390330127777Q1112.8563987923471 426.92937635856157 1118.3422680411165 424.97985257594104Q1123.8054684086926 423.03032879332056 1130.8101526974106 423.03032879332056L1130.8101526974106 423.03032879332056Q1138.9709499269845 423.03032879332056 1145.4769188294508 425.5919123681591Q1151.9602188507235 428.15349594299767 1156.6980150201152 432.64193441926346L1156.6980150201152 432.64193441926346ZM1174.969133261884 424.32245502133645L1189.4998861067647 424.32245502133645L1189.4998861067647 477.050272676863Q1189.4998861067647 486.43518949087337 1193.829642414678 491.58102552174375Q1198.1367298413975 496.7041926714209 1206.8869179819965 496.7041926714209L1206.8869179819965 496.7041926714209Q1213.2342047161098 496.7041926714209 1218.878756133232 493.6892314727171Q1224.5006386691607 490.6742702740133 1229.2384348385526 485.279076550017L1229.2384348385526 485.279076550017L1229.2384348385526 424.32245502133645L1243.7691876834333 424.32245502133645L1243.7691876834333 506.9958647331617L1235.1096750676074 506.9958647331617Q1232.0040383441305 506.9958647331617 1231.187958621173 503.98090353445787L1231.187958621173 503.98090353445787L1230.05451456151 495.07203322550606Q1224.6593208375136 501.03394897933384 1217.9720008855015 504.66096997025574Q1211.2846809334892 508.31065984237085 1202.6251683176633 508.31065984237085L1202.6251683176633 508.31065984237085Q1195.8698417220714 508.31065984237085 1190.6786679288143 506.0664406042379Q1185.4874941355574 503.82222136610505 1181.9964864317953 499.74182275131795Q1178.4828098468397 495.66142413653085 1176.714637113765 489.8581905510559Q1174.969133261884 484.05495696558086 1174.969133261884 477.050272676863L1174.969133261884 477.050272676863L1174.969133261884 424.32245502133645ZM1262.9470611729325 498.0189877806301L1262.9470611729325 498.0189877806301Q1262.9470611729325 495.88811294846346 1263.7178031335034 494.029264690616Q1264.4885450940744 492.14774755157526 1265.84867796567 490.76494579878636Q1267.1861419560723 489.3594751648041 1269.0676590951132 488.5433954418467Q1270.949176234154 487.72731571888926 1273.0573821851272 487.72731571888926L1273.0573821851272 487.72731571888926Q1275.1882570172938 487.72731571888926 1277.0697741563345 488.5433954418467Q1278.928622414182 489.3594751648041 1280.334093048164 490.76494579878636Q1281.716894800953 492.14774755157526 1282.487636761524 494.029264690616Q1283.258378722095 495.88811294846346 1283.258378722095 498.0189877806301L1283.258378722095 498.0189877806301Q1283.258378722095 500.21786925637645 1282.487636761524 502.0540486330306Q1281.716894800953 503.8902280096848 1280.334093048164 505.27302976247375Q1278.928622414182 506.678500396456 1277.0697741563345 507.4492423570269Q1275.1882570172938 508.2199843175978 1273.0573821851272 508.2199843175978L1273.0573821851272 508.2199843175978Q1270.949176234154 508.2199843175978 1269.0676590951132 507.4492423570269Q1267.1861419560723 506.678500396456 1265.84867796567 505.27302976247375Q1264.4885450940744 503.8902280096848 1263.7178031335034 502.0540486330306Q1262.9470611729325 500.21786925637645 1262.9470611729325 498.0189877806301ZM1330.1149561485668 422.9396532685475L1330.1149561485668 422.9396532685475Q1335.4874809913697 422.9396532685475 1340.179939398375 424.1184350905971Q1344.8723978053802 425.2972169126467 1348.7034387270412 427.58677391316616L1348.7034387270412 427.58677391316616L1371.1456311083705 427.58677391316616L1371.1456311083705 432.9819676371624Q1371.1456311083705 435.67956449916056 1367.7226300481877 436.40496869734494L1367.7226300481877 436.40496869734494L1358.3377132341777 437.7197638065541Q1361.1259856209488 443.0242820057773 1361.1259856209488 449.55291978943666L1361.1259856209488 449.55291978943666Q1361.1259856209488 455.5828421868443 1358.7910908580427 460.5246582869753Q1356.4561960951369 465.4664743871063 1352.3531285991564 468.9574820908686Q1348.2273922219829 472.47115867582414 1342.5601719236677 474.3526758148649Q1336.8702827441587 476.2341929539056 1330.1149561485668 476.2341929539056L1330.1149561485668 476.2341929539056Q1324.311722563092 476.2341929539056 1319.1658865322215 474.85139120111666L1319.1658865322215 474.85139120111666Q1316.5589651949965 476.4835506470315 1315.2215012045938 478.34239890487896Q1313.8613683329984 480.2239160439197 1313.8613683329984 482.01475765818736L1313.8613683329984 482.01475765818736Q1313.8613683329984 484.9617122133114 1316.2416008582907 486.4805272532599Q1318.5991645023898 487.97667341201515 1322.5208809488242 488.63407096661973Q1326.4425973952584 489.2914685212243 1331.4070823765826 489.45015068957713Q1336.3942362391 489.60883285793 1341.562741151164 489.9715349570222Q1346.7539149444208 490.3569059373076 1351.7410688069383 491.24099230384485Q1356.7055537882627 492.14774755157526 1360.627270234697 494.1879468589688Q1364.5489866811313 496.22814616636236 1366.9065503252305 499.80982939489775Q1369.286782850523 503.41418150462636 1369.286782850523 509.12673956532825L1369.286782850523 509.12673956532825Q1369.286782850523 514.4312577645514 1366.6345237509115 519.3957427458759Q1363.9822646512996 524.3828966083934 1358.995110788782 528.2592752924411Q1354.0079569262646 532.1356539764888 1346.844590469194 534.4478798582015Q1339.65855513093 536.7827746211075 1330.5910026536253 536.7827746211075L1330.5910026536253 536.7827746211075Q1321.546119057514 536.7827746211075 1314.7227858183421 534.9919330068399Q1307.8994525791704 533.2010913925722 1303.4110141029046 530.163461312675Q1298.922575626639 527.1485001139713 1296.678356388506 523.2041147863438Q1294.4341371503729 519.2370605775229 1294.4341371503729 514.90730426961L1294.4341371503729 514.90730426961Q1294.4341371503729 508.78670634742934 1298.3105158344206 504.5022878019029Q1302.1868945184685 500.21786925637645 1308.9648899952538 497.7016234439244L1308.9648899952538 497.7016234439244Q1305.4512134102981 496.06946399800955 1303.3883452217112 493.3265293736249Q1301.3028081519312 490.58359474924026 1301.3028081519312 486.0271496293946L1301.3028081519312 486.0271496293946Q1301.3028081519312 484.236308015127 1301.9602057065358 482.30945311369976Q1302.5949343799473 480.3825982122725 1303.955067251543 478.52374995442506Q1305.2925312419454 476.6422328153843 1307.2647239057592 474.91939784469645Q1309.2142476883794 473.2192317552018 1311.8211690256046 471.90443664599263L1311.8211690256046 471.90443664599263Q1305.700571103424 468.4814355858102 1302.232232280855 462.81421528749473Q1298.763893458286 457.12432610798606 1298.763893458286 449.55291978943666L1298.763893458286 449.55291978943666Q1298.763893458286 443.5003285108358 1301.0987882211919 438.55851241070474Q1303.4110141029046 433.639365191767 1307.5820882424648 430.17102636919793Q1311.7531623820248 426.7026875466289 1317.48838932392 424.8211704075882Q1323.2462851470084 422.9396532685475 1330.1149561485668 422.9396532685475ZM1355.8894740653052 511.4843032094275L1355.8894740653052 511.4843032094275Q1355.8894740653052 508.37866648595065 1354.1893079758108 506.4971493469099Q1352.466473005123 504.63830108906245 1349.5195184499987 503.6182014353657Q1346.595232776068 502.5981017816689 1342.7641918544066 502.0993863954172Q1338.9104820515524 501.6006710091654 1334.6714012684124 501.39665107842603Q1330.4323204852724 501.19263114768665 1326.0345575337797 500.96594233575405Q1321.6141257010938 500.71658464262816 1317.6244026110796 500.05918708802363L1317.6244026110796 500.05918708802363Q1312.977281966461 502.25806856377 1310.0756651737236 505.4543808120199Q1307.174048380986 508.6280241790765 1307.174048380986 513.0257871305693L1307.174048380986 513.0257871305693Q1307.174048380986 515.8140595173404 1308.6021878961615 518.2169609238263Q1310.0303274113369 520.6198623303119 1312.977281966461 522.3880350633863Q1315.9015676403917 524.1335389152675 1320.3446683542709 525.1536385689642Q1324.8104379493436 526.1737382226611 1330.8403603467511 526.1737382226611L1330.8403603467511 526.1737382226611Q1336.711600575806 526.1737382226611 1341.3587212204245 525.1083008065777Q1346.0285107462366 524.0428633904944 1349.2474918756795 522.093339607874Q1352.466473005123 520.1438158252533 1354.1893079758108 517.4462189632552Q1355.8894740653052 514.7486221012571 1355.8894740653052 511.4843032094275ZM1330.1149561485668 466.59991844676944L1330.1149561485668 466.59991844676944Q1334.5127191000595 466.59991844676944 1337.8903823978555 465.3757988623333Q1341.2907145768447 464.15167927789713 1343.580271577364 461.95279780215077Q1345.8471596966904 459.7539163264044 1347.0032726375468 456.6936173653141Q1348.1367166972097 453.63331840422376 1348.1367166972097 449.96095965091536L1348.1367166972097 449.96095965091536Q1348.1367166972097 442.3668844511727 1343.5349338149779 437.8784459749069Q1338.9104820515524 433.3900074986411 1330.1149561485668 433.3900074986411L1330.1149561485668 433.3900074986411Q1321.3647680079678 433.3900074986411 1316.7629851257357 437.8784459749069Q1312.1612022435036 442.3668844511727 1312.1612022435036 449.96095965091536L1312.1612022435036 449.96095965091536Q1312.1612022435036 453.63331840422376 1313.3399840655532 456.6936173653141Q1314.5187658876027 459.7539163264044 1316.8083228881221 461.95279780215077Q1319.0978798886417 464.15167927789713 1322.4302054240513 465.3757988623333Q1325.7851998406538 466.59991844676944 1330.1149561485668 466.59991844676944ZM1387.3085433991657 424.32245502133645L1401.8392962440466 424.32245502133645L1401.8392962440466 506.9958647331617L1387.3085433991657 506.9958647331617L1387.3085433991657 424.32245502133645ZM1405.1036151358765 398.36658605505187L1405.1036151358765 398.36658605505187Q1405.1036151358765 400.49746088721844 1404.2421976505323 402.33364026387267Q1403.3807801651885 404.16981964052684 1401.9526406500129 405.5979591557023Q1400.5245011348377 407.02609867087784 1398.6656528769902 407.84217839383524Q1396.784135737949 408.65825811679264 1394.6532609057829 408.65825811679264L1394.6532609057829 408.65825811679264Q1392.5450549548093 408.65825811679264 1390.7088755781551 407.84217839383524Q1388.872696201501 407.02609867087784 1387.4445566863253 405.5979591557023Q1386.0164171711501 404.16981964052684 1385.2003374481926 402.33364026387267Q1384.384257725235 400.49746088721844 1384.384257725235 398.36658605505187L1384.384257725235 398.36658605505187Q1384.384257725235 396.2583801040785 1385.2003374481926 394.3315252026513Q1386.0164171711501 392.4273391824173 1387.4445566863253 390.99919966724184Q1388.872696201501 389.57106015206637 1390.7088755781551 388.7549804291089Q1392.5450549548093 387.9389007061515 1394.6532609057829 387.9389007061515L1394.6532609057829 387.9389007061515Q1396.784135737949 387.9389007061515 1398.6656528769902 388.7549804291089Q1400.5245011348377 389.57106015206637 1401.9526406500129 390.99919966724184Q1403.3807801651885 392.4273391824173 1404.2421976505323 394.3315252026513Q1405.1036151358765 396.2583801040785 1405.1036151358765 398.36658605505187ZM1452.5269145921798 508.31065984237085L1452.5269145921798 508.31065984237085Q1442.7339579166908 508.31065984237085 1437.4521085986605 502.8247905936015Q1432.1929281618238 497.3615902260255 1432.1929281618238 487.09258704547796L1432.1929281618238 487.09258704547796L1432.1929281618238 436.49564422211796L1422.2412893179821 436.49564422211796Q1420.926494208773 436.49564422211796 1420.042407842236 435.7022333803538Q1419.1356525945052 434.9314914197829 1419.1356525945052 433.29933197386805L1419.1356525945052 433.29933197386805L1419.1356525945052 427.51876726958636L1432.6916435480757 425.79593229889844L1436.023969083485 400.2481031940926Q1436.2053201330314 399.02398360965645 1437.0894064995684 398.25324164908557Q1437.9961617472989 397.4824996885147 1439.3789635000878 397.4824996885147L1439.3789635000878 397.4824996885147L1446.7236810067047 397.4824996885147L1446.7236810067047 425.9546144672513L1470.3899929724698 425.9546144672513L1470.3899929724698 436.49564422211796L1446.7236810067047 436.49564422211796L1446.7236810067047 486.0951562729744Q1446.7236810067047 491.33166782861787 1449.26259570035 493.8479136410699Q1451.7788415128023 496.38682833471523 1455.7912334840094 496.38682833471523L1455.7912334840094 496.38682833471523Q1458.0581216033354 496.38682833471523 1459.7356188116369 495.77476854249716Q1461.4131160199383 495.1627087502791 1462.6372356043744 494.4373045520947Q1463.8613551888104 493.6892314727171 1464.7227726741544 493.077171680499Q1465.5841901594983 492.465111888281 1466.2189188329096 492.465111888281L1466.2189188329096 492.465111888281Q1467.375031773766 492.465111888281 1468.2591181403034 493.8479136410699L1468.2591181403034 493.8479136410699L1472.5208678046365 500.784591286208Q1468.757833526555 504.29826787116355 1463.4533153273317 506.29312941617053Q1458.1487971281085 508.31065984237085 1452.5269145921798 508.31065984237085ZM1502.8744997224137 506.9958647331617L1488.343746877533 506.9958647331617L1488.343746877533 386.78278776529515L1502.8744997224137 386.78278776529515L1502.8744997224137 435.4302068060347Q1508.179017921637 429.7856553889125 1514.6169801805233 426.4079920911165Q1521.077611320603 423.03032879332056 1529.4650973621099 423.03032879332056L1529.4650973621099 423.03032879332056Q1536.243092838895 423.03032879332056 1541.4342666321518 425.27454803145343Q1546.6027715442156 427.51876726958636 1550.0711103667845 431.6218347655667Q1553.5394491893535 435.7475711427403 1555.3529596848146 441.5508047282153Q1557.1438012990823 447.331369432497 1557.1438012990823 454.35872260240814L1557.1438012990823 454.35872260240814L1557.1438012990823 506.9958647331617L1542.6130484542016 506.9958647331617L1542.6130484542016 454.35872260240814Q1542.6130484542016 444.9738057883978 1538.328629908675 439.7826319951409Q1534.0442113631486 434.6141270830772 1525.2260165789696 434.6141270830772L1525.2260165789696 434.6141270830772Q1518.7880543200833 434.6141270830772 1513.188840665348 437.7197638065541Q1507.6122958918056 440.80273164883766 1502.8744997224137 446.1072498480609L1502.8744997224137 446.1072498480609L1502.8744997224137 506.9958647331617ZM1577.137754511539 424.32245502133645L1591.6685073564197 424.32245502133645L1591.6685073564197 477.050272676863Q1591.6685073564197 486.43518949087337 1595.9755947831393 491.58102552174375Q1600.3053510910524 496.7041926714209 1609.032870350458 496.7041926714209L1609.032870350458 496.7041926714209Q1615.4028259657646 496.7041926714209 1621.0473773828867 493.6892314727171Q1626.6692599188157 490.6742702740133 1631.4070560882071 485.279076550017L1631.4070560882071 485.279076550017L1631.4070560882071 424.32245502133645L1645.937808933088 424.32245502133645L1645.937808933088 506.9958647331617L1637.2782963172622 506.9958647331617Q1634.172659593785 506.9958647331617 1633.3565798708278 503.98090353445787L1633.3565798708278 503.98090353445787L1632.2231358111646 495.07203322550606Q1626.8279420871684 501.03394897933384 1620.1406221351563 504.66096997025574Q1613.4533021831442 508.31065984237085 1604.7937895673183 508.31065984237085L1604.7937895673183 508.31065984237085Q1598.015794090533 508.31065984237085 1592.8472891784693 506.0664406042379Q1587.6561153852124 503.82222136610505 1584.1424388002567 499.74182275131795Q1580.6514310964944 495.66142413653085 1578.88325836342 489.8581905510559Q1577.137754511539 484.05495696558086 1577.137754511539 477.050272676863L1577.137754511539 477.050272676863L1577.137754511539 424.32245502133645ZM1679.7144419110477 506.9958647331617L1670.3295250970375 506.9958647331617L1670.3295250970375 386.78278776529515L1684.928284585498 386.78278776529515L1684.928284585498 436.2462865289921Q1690.0741206163682 430.2843707751643 1696.7387716871874 426.6573497842424Q1703.380753876813 423.03032879332056 1711.949590967866 423.03032879332056L1711.949590967866 423.03032879332056Q1719.13562630613 423.03032879332056 1724.9161910104115 425.7052567741254Q1730.7194245958865 428.40285363612355 1734.7998232106736 433.7527095977333Q1738.8802218254607 439.1025655593431 1741.0791033012072 446.9686673334048Q1743.2779847769536 454.8574379886599 1743.2779847769536 465.1264411692074L1743.2779847769536 465.1264411692074Q1743.2779847769536 474.26200029009186 1740.829745608081 482.1507709453469Q1738.381506439209 490.0168727194087 1733.7797235569767 495.77476854249716Q1729.1779406747448 501.5326643655856 1722.5132896039256 504.84232101980183Q1715.8713074143004 508.12930879282476 1707.551828016373 508.12930879282476L1707.551828016373 508.12930879282476Q1699.5497129551518 508.12930879282476 1693.9504993004164 505.04634095054115Q1688.3739545268738 501.9407042270643 1684.2028803873138 496.38682833471523L1684.2028803873138 496.38682833471523L1683.4774761891294 503.8902280096848Q1682.8200786345246 506.9958647331617 1679.7144419110477 506.9958647331617L1679.7144419110477 506.9958647331617ZM1707.211794798474 434.6141270830772L1707.211794798474 434.6141270830772Q1700.1164349849832 434.6141270830772 1694.7665790233737 437.8784459749069Q1689.4167230617638 441.14276486673657 1684.928284585498 447.1046806205644L1684.928284585498 447.1046806205644L1684.928284585498 487.09258704547796Q1688.8500010319324 492.465111888281 1693.6331349637105 494.66399336402736Q1698.3936000142955 496.88554372096695 1704.2875091245435 496.88554372096695L1704.2875091245435 496.88554372096695Q1715.8713074143004 496.88554372096695 1722.0599119800606 488.63407096661973Q1728.2711854270144 480.3825982122725 1728.2711854270144 465.1264411692074L1728.2711854270144 465.1264411692074Q1728.2711854270144 457.0563194644063 1726.8430459118388 451.2530858789313Q1725.4149063966631 445.47252117464956 1722.7173095346654 441.75482465895465Q1720.0197126726673 438.03712814325974 1716.120665107426 436.31429317257187Q1712.198948660992 434.6141270830772 1707.211794798474 434.6141270830772ZM1756.335260344272 498.0189877806301L1756.335260344272 498.0189877806301Q1756.335260344272 495.88811294846346 1757.1286711860364 494.029264690616Q1757.8994131466072 492.14774755157526 1759.2368771370095 490.76494579878636Q1760.5970100086054 489.3594751648041 1762.4558582664529 488.5433954418467Q1764.3373754054935 487.72731571888926 1766.4682502376602 487.72731571888926L1766.4682502376602 487.72731571888926Q1768.5764561886338 487.72731571888926 1770.4579733276744 488.5433954418467Q1772.339490466715 489.3594751648041 1773.722292219504 490.76494579878636Q1775.105093972293 492.14774755157526 1775.8985048140569 494.029264690616Q1776.6692467746277 495.88811294846346 1776.6692467746277 498.0189877806301L1776.6692467746277 498.0189877806301Q1776.6692467746277 500.21786925637645 1775.8985048140569 502.0540486330306Q1775.105093972293 503.8902280096848 1773.722292219504 505.27302976247375Q1772.339490466715 506.678500396456 1770.4579733276744 507.4492423570269Q1768.5764561886338 508.2199843175978 1766.4682502376602 508.2199843175978L1766.4682502376602 508.2199843175978Q1764.3373754054935 508.2199843175978 1762.4558582664529 507.4492423570269Q1760.5970100086054 506.678500396456 1759.2368771370095 505.27302976247375Q1757.8994131466072 503.8902280096848 1757.1286711860364 502.0540486330306Q1756.335260344272 500.21786925637645 1756.335260344272 498.0189877806301ZM1797.3205975416893 424.32245502133645L1811.8286815053768 424.32245502133645L1811.8286815053768 506.9958647331617L1797.3205975416893 506.9958647331617L1797.3205975416893 424.32245502133645ZM1815.0930003972064 398.36658605505187L1815.0930003972064 398.36658605505187Q1815.0930003972064 400.49746088721844 1814.2542517930558 402.33364026387267Q1813.392834307712 404.16981964052684 1811.9646947925364 405.5979591557023Q1810.5365552773608 407.02609867087784 1808.6550381383202 407.84217839383524Q1806.7735209992795 408.65825811679264 1804.665315048306 408.65825811679264L1804.665315048306 408.65825811679264Q1802.5344402161397 408.65825811679264 1800.6982608394853 407.84217839383524Q1798.862081462831 407.02609867087784 1797.4339419476557 405.5979591557023Q1796.00580243248 404.16981964052684 1795.1897227095226 402.33364026387267Q1794.373642986565 400.49746088721844 1794.373642986565 398.36658605505187L1794.373642986565 398.36658605505187Q1794.373642986565 396.2583801040785 1795.1897227095226 394.3315252026513Q1796.00580243248 392.4273391824173 1797.4339419476557 390.99919966724184Q1798.862081462831 389.57106015206637 1800.6982608394853 388.7549804291089Q1802.5344402161397 387.9389007061515 1804.665315048306 387.9389007061515L1804.665315048306 387.9389007061515Q1806.7735209992795 387.9389007061515 1808.6550381383202 388.7549804291089Q1810.5365552773608 389.57106015206637 1811.9646947925364 390.99919966724184Q1813.392834307712 392.4273391824173 1814.2542517930558 394.3315252026513Q1815.0930003972064 396.2583801040785 1815.0930003972064 398.36658605505187ZM1870.9264547762098 423.03032879332056L1870.9264547762098 423.03032879332056Q1879.9713383723213 423.03032879332056 1887.2933869977448 426.0452899920243Q1894.5927667419749 429.06025119072814 1899.6932650104588 434.6141270830772Q1904.7937632789424 440.16800297542636 1907.514029022134 448.0341047494881Q1910.256963646519 455.9002065235499 1910.256963646519 465.62515655545917L1910.256963646519 465.62515655545917Q1910.256963646519 475.4181132309482 1907.514029022134 483.23887724262346Q1904.7937632789424 491.08231013549204 1899.6932650104588 496.6361860278411Q1894.5927667419749 502.1900619201902 1887.2933869977448 505.1596853565075Q1879.9713383723213 508.12930879282476 1870.9264547762098 508.12930879282476L1870.9264547762098 508.12930879282476Q1861.8589022989052 508.12930879282476 1854.5595225546747 505.1596853565075Q1847.2601428104447 502.1900619201902 1842.1143067795745 496.6361860278411Q1836.9684707487038 491.08231013549204 1834.2028672431259 483.23887724262346Q1831.4145948563548 475.4181132309482 1831.4145948563548 465.62515655545917L1831.4145948563548 465.62515655545917Q1831.4145948563548 455.9002065235499 1834.2028672431259 448.0341047494881Q1836.9684707487038 440.16800297542636 1842.1143067795745 434.6141270830772Q1847.2601428104447 429.06025119072814 1854.5595225546747 426.0452899920243Q1861.8589022989052 423.03032879332056 1870.9264547762098 423.03032879332056ZM1870.9264547762098 496.79486819619393L1870.9264547762098 496.79486819619393Q1883.167650620571 496.79486819619393 1889.1975730179786 488.5887332042332Q1895.2501642965797 480.3825982122725 1895.2501642965797 465.69316319903896L1895.2501642965797 465.69316319903896Q1895.2501642965797 450.9357215422256 1889.1975730179786 442.6842487878784Q1883.167650620571 434.4554449147244 1870.9264547762098 434.4554449147244L1870.9264547762098 434.4554449147244Q1864.715181329256 434.4554449147244 1860.1587362094103 436.56365086569775Q1855.5796222083716 438.6945256978643 1852.5193232472814 442.6842487878784Q1849.4590242861912 446.6966407590857 1847.9402092462426 452.52254322575396Q1846.4440630874876 458.34844569242216 1846.4440630874876 465.69316319903896L1846.4440630874876 465.69316319903896Q1846.4440630874876 473.0378807056557 1847.9402092462426 478.84111429113074Q1849.4590242861912 484.6443478766057 1852.5193232472814 488.5887332042332Q1855.5796222083716 492.555787413054 1860.1587362094103 494.66399336402736Q1864.715181329256 496.79486819619393 1870.9264547762098 496.79486819619393Z " fill="#006838" transform="matrix(0.45805356706190364,0,0,0.4580535670619036,0,88.47876160624266)"/></g></svg>